<svg width="146" height="32" viewBox="0 0 146 32" fill="none" xmlns="http://www.w3.org/2000/svg">
<path d="M15.0223 23.3935C15.0619 23.4241 15.1015 23.4548 15.1423 23.4864C15.3484 23.6462 15.554 23.8064 15.7595 23.9668C15.9951 24.1505 16.2323 24.3322 16.4699 24.5133C16.7944 24.7608 17.1174 25.0102 17.4395 25.261C17.4807 25.293 17.522 25.3249 17.5645 25.3579C17.7492 25.5012 17.9331 25.6452 18.1142 25.7932C18.8117 26.3582 19.5814 26.6393 20.4849 26.5618C20.9244 26.495 21.2975 26.3924 21.6867 26.1794C21.7408 26.1794 21.7949 26.1794 21.8506 26.1794C21.8506 26.1433 21.8506 26.1073 21.8506 26.0701C21.8855 26.0645 21.9204 26.0589 21.9564 26.0531C22.0122 26.0345 22.0122 26.0345 22.0691 26.0155C22.0871 25.9614 22.1051 25.9074 22.1237 25.8516C22.2311 25.776 22.3406 25.7035 22.4515 25.6331C22.501 25.5926 22.5506 25.552 22.6017 25.5102C22.7246 25.4146 22.7246 25.4146 22.8339 25.4146C22.8519 25.3605 22.8699 25.3065 22.8885 25.2508C22.9426 25.2508 22.9966 25.2508 23.0524 25.2508C23.0704 25.1967 23.0884 25.1426 23.107 25.0869C23.2197 25.0493 23.2197 25.0493 23.3255 25.0322C23.3255 24.9962 23.3255 24.9601 23.3255 24.923C23.3604 24.9174 23.3953 24.9117 23.4313 24.9059C23.4685 24.8935 23.5057 24.8811 23.544 24.8684C23.562 24.8143 23.5801 24.7602 23.5986 24.7045C23.6938 24.6345 23.6938 24.6345 23.8103 24.5679C23.9302 24.4989 24.0275 24.4397 24.1248 24.3409C24.1995 24.2675 24.1995 24.2675 24.3088 24.2675C24.3088 24.2314 24.3088 24.1954 24.3088 24.1582C24.3989 24.1222 24.489 24.0861 24.5819 24.049C24.5819 24.0129 24.5819 23.9769 24.5819 23.9397C24.654 23.9217 24.7261 23.9037 24.8004 23.8851C24.8004 23.849 24.8004 23.813 24.8004 23.7758C24.8725 23.7578 24.9446 23.7398 25.0189 23.7212C25.0189 23.6852 25.0189 23.6491 25.0189 23.612C25.1207 23.5354 25.1207 23.5354 25.2545 23.4515C25.3823 23.371 25.4955 23.2994 25.6017 23.1918C25.6744 23.1203 25.6744 23.1203 25.7837 23.1203C25.7837 23.0843 25.7837 23.0482 25.7837 23.0111C25.8855 22.9287 25.8855 22.9287 26.0193 22.8404C26.063 22.8109 26.1067 22.7815 26.1518 22.7512C26.2753 22.6833 26.2753 22.6833 26.4392 22.6833C26.4392 22.6473 26.4392 22.6112 26.4392 22.5741C27.4387 22.0852 28.4387 21.666 29.5529 21.5362C29.5966 21.5302 29.6404 21.5242 29.6854 21.518C32.0464 21.2426 34.2581 21.9368 36.1081 23.3935C36.3165 23.5583 36.5237 23.7245 36.7305 23.8913C36.9768 24.0893 37.2275 24.2814 37.4784 24.4734C37.6139 24.5771 37.7489 24.6815 37.8834 24.7864C38.0729 24.9341 38.2631 25.0806 38.4536 25.2269C38.7878 25.4836 39.1212 25.7414 39.4532 26.001C39.6527 26.1569 39.8527 26.3118 40.0555 26.4634C40.0912 26.4905 40.127 26.5176 40.1638 26.5455C40.2306 26.5961 40.2978 26.6461 40.3655 26.6956C40.4547 26.7636 40.4547 26.7636 40.5875 26.8895C40.5875 27.1487 40.5002 27.2549 40.3485 27.4495C40.3147 27.4949 40.3147 27.4949 40.2802 27.5412C40.2217 27.6177 40.1591 27.691 40.0958 27.7636C40.0598 27.7636 40.0237 27.7636 39.9866 27.7636C39.9685 27.8357 39.9505 27.9078 39.9319 27.9821C39.8959 27.9821 39.8598 27.9821 39.8227 27.9821C39.7866 28.0722 39.7506 28.1623 39.7134 28.2552C39.6774 28.2552 39.6413 28.2552 39.6042 28.2552C39.5895 28.2856 39.5749 28.316 39.5598 28.3474C39.489 28.4853 39.4171 28.6178 39.331 28.7468C39.295 28.7468 39.2589 28.7468 39.2218 28.7468C39.2071 28.7874 39.1925 28.828 39.1774 28.8698C39.1151 29.014 39.0528 29.1213 38.9487 29.2385C38.9126 29.2385 38.8766 29.2385 38.8394 29.2385C38.831 29.2858 38.831 29.2858 38.8223 29.3341C38.7788 29.4765 38.7197 29.5648 38.6209 29.6755C38.5848 29.6755 38.5488 29.6755 38.5116 29.6755C38.4756 29.7656 38.4395 29.8558 38.4024 29.9486C38.3663 29.9486 38.3303 29.9486 38.2931 29.9486C38.2571 30.0388 38.221 30.1289 38.1839 30.2218C38.1478 30.2218 38.1118 30.2218 38.0746 30.2218C38.0386 30.3119 38.0025 30.402 37.9654 30.4949C37.9293 30.4949 37.8933 30.4949 37.8561 30.4949C37.8381 30.567 37.8201 30.6391 37.8015 30.7134C37.7654 30.7134 37.7294 30.7134 37.6922 30.7134C37.6742 30.7855 37.6562 30.8576 37.6376 30.9319C37.6016 30.9319 37.5655 30.9319 37.5284 30.9319C37.5227 30.9668 37.5171 31.0018 37.5113 31.0377C37.4989 31.0749 37.4865 31.1121 37.4737 31.1504C37.4197 31.1684 37.3656 31.1865 37.3099 31.205C37.1808 31.1148 37.0641 31.0233 36.9445 30.9217C36.8705 30.8604 36.7963 30.7993 36.722 30.7384C36.6837 30.7069 36.6455 30.6754 36.606 30.6429C36.4258 30.4972 36.2398 30.3595 36.0535 30.2218C35.7331 29.9839 35.4198 29.7389 35.1094 29.4883C34.8138 29.2502 34.5129 29.0196 34.2108 28.7899C33.9977 28.6277 33.7858 28.4643 33.5757 28.2981C33.4515 28.1999 33.3268 28.1024 33.202 28.0048C33.1335 27.9509 33.0652 27.8967 32.9972 27.8422C32.1405 27.1573 31.3738 26.872 30.2631 26.9442C29.6723 27.0297 29.1798 27.2638 28.7335 27.6543C28.6975 27.6543 28.6614 27.6543 28.6243 27.6543C28.6062 27.7084 28.5882 27.7625 28.5696 27.8182C28.457 27.8557 28.457 27.8557 28.3511 27.8728C28.3511 27.9089 28.3511 27.9449 28.3511 27.9821C28.3162 27.9877 28.2813 27.9933 28.2453 27.9991C28.2081 28.0115 28.1709 28.0239 28.1326 28.0367C28.1146 28.0908 28.0966 28.1449 28.078 28.2006C27.7846 28.4191 27.7846 28.4191 27.641 28.4191C27.623 28.4732 27.6049 28.5272 27.5864 28.583C27.4737 28.6205 27.4737 28.6205 27.3679 28.6376C27.3679 28.6736 27.3679 28.7097 27.3679 28.7468C27.2777 28.7829 27.1876 28.8189 27.0947 28.8561C27.0947 28.8921 27.0947 28.9282 27.0947 28.9653C27.0226 28.9834 26.9505 29.0014 26.8762 29.02C26.8762 29.056 26.8762 29.0921 26.8762 29.1292C26.8413 29.1349 26.8064 29.1405 26.7704 29.1463C26.7146 29.1649 26.7146 29.1649 26.6577 29.1839C26.6397 29.2379 26.6217 29.292 26.6031 29.3477C26.549 29.3477 26.4949 29.3477 26.4392 29.3477C26.4212 29.4018 26.4031 29.4559 26.3846 29.5116C26.3127 29.5499 26.2398 29.5862 26.1661 29.6209C26.1102 29.6743 26.0557 29.7291 26.0022 29.7847C25.7462 30.0032 25.7462 30.0032 25.6198 30.0032C25.6198 30.0393 25.6198 30.0754 25.6198 30.1125C25.5477 30.1305 25.4756 30.1486 25.4013 30.1671C25.4013 30.2032 25.4013 30.2392 25.4013 30.2764C25.3115 30.3587 25.3115 30.3587 25.193 30.4471C25.1544 30.4765 25.1157 30.506 25.0759 30.5363C24.9643 30.6041 24.9643 30.6041 24.8004 30.6041C24.8004 30.6402 24.8004 30.6762 24.8004 30.7134C22.5467 31.9645 20.1353 32.3571 17.6313 31.652C16.3149 31.256 15.2533 30.4586 14.1993 29.6055C13.9099 29.3724 13.6133 29.1497 13.3152 28.9278C12.9775 28.6763 12.646 28.4214 12.3221 28.1524C11.3261 27.332 10.4933 26.8588 9.17724 26.9442C8.9665 26.978 8.77539 27.0317 8.57635 27.108C8.5315 27.1252 8.48664 27.1423 8.44043 27.1599C8.19909 27.2598 8.01196 27.375 7.81158 27.5451C7.77553 27.5451 7.73948 27.5451 7.70233 27.5451C7.6843 27.5991 7.66628 27.6532 7.6477 27.7089C7.53504 27.7465 7.53504 27.7465 7.4292 27.7636C7.4292 27.7996 7.4292 27.8357 7.4292 27.8728C7.35709 27.8908 7.28498 27.9089 7.21069 27.9274C7.21069 27.9635 7.21069 27.9996 7.21069 28.0367C7.11903 28.1109 7.0239 28.1808 6.92732 28.2484C6.76741 28.361 6.61115 28.4726 6.46022 28.597C6.33667 28.6922 6.33667 28.6922 6.22742 28.6922C6.22742 28.7283 6.22742 28.7643 6.22742 28.8015C6.14761 28.8719 6.14761 28.8719 6.04305 28.9449C6.00883 28.9692 5.97461 28.9936 5.93935 29.0187C5.84503 29.0746 5.84503 29.0746 5.73578 29.0746C5.73578 29.1107 5.73578 29.1467 5.73578 29.1839C5.70085 29.1895 5.66592 29.1951 5.62994 29.2009C5.57417 29.2195 5.57417 29.2195 5.51727 29.2385C5.49924 29.2926 5.48122 29.3466 5.46265 29.4024C5.40857 29.4024 5.35448 29.4024 5.29877 29.4024C5.28074 29.4564 5.26271 29.5105 5.24414 29.5662C5.17229 29.6046 5.09931 29.6408 5.02563 29.6755C4.96981 29.7289 4.9153 29.7837 4.86175 29.8394C4.60579 30.0579 4.60579 30.0579 4.47937 30.0579C4.47937 30.0939 4.47937 30.13 4.47937 30.1671C4.18374 30.3856 4.18374 30.3856 4.04236 30.3856C4.02433 30.4397 4.0063 30.4938 3.98773 30.5495C3.93365 30.5495 3.87957 30.5495 3.82385 30.5495C3.80582 30.6036 3.7878 30.6577 3.76923 30.7134C3.59026 30.8486 3.44158 30.9401 3.22296 30.9865C2.65044 30.2989 2.10786 29.5874 1.56326 28.8776C1.4241 28.6967 1.28361 28.5168 1.14313 28.3369C0.980106 28.128 0.817718 27.9185 0.655517 27.7089C0.623126 27.6672 0.590734 27.6254 0.55736 27.5823C0.464443 27.4621 0.372114 27.3415 0.279961 27.2207C0.237512 27.166 0.237512 27.166 0.194207 27.1101C0 26.8537 0 26.8537 0 26.671C0.0349268 26.6654 0.0698536 26.6598 0.105839 26.654C0.143019 26.6416 0.180199 26.6292 0.218506 26.6164C0.236533 26.5623 0.254559 26.5083 0.273132 26.4525C0.385799 26.415 0.385799 26.415 0.491638 26.3979C0.491638 26.3619 0.491638 26.3258 0.491638 26.2887C0.787264 26.0701 0.787264 26.0701 0.92865 26.0701C0.95569 25.989 0.95569 25.989 0.983276 25.9063C1.10671 25.8075 1.22917 25.7161 1.35883 25.6263C1.39369 25.6014 1.42855 25.5766 1.46446 25.551C1.61202 25.4472 1.73987 25.3627 1.91193 25.3054C1.93897 25.2243 1.93897 25.2243 1.96655 25.1415C2.25997 24.923 2.25997 24.923 2.40356 24.923C2.42159 24.8689 2.43962 24.8148 2.45819 24.7591C2.57342 24.6671 2.57342 24.6671 2.71767 24.5713C2.87368 24.4661 3.02213 24.3624 3.16833 24.2436C3.27759 24.1582 3.27759 24.1582 3.38684 24.1582C3.40487 24.1041 3.42289 24.0501 3.44147 23.9943C3.55413 23.9568 3.55413 23.9568 3.65997 23.9397C3.65997 23.9037 3.65997 23.8676 3.65997 23.8305C3.73208 23.8124 3.80419 23.7944 3.87848 23.7758C3.87848 23.7398 3.87848 23.7037 3.87848 23.6666C3.93087 23.6581 3.93087 23.6581 3.98432 23.6495C4.0215 23.6371 4.05868 23.6247 4.09698 23.612C4.11501 23.5579 4.13304 23.5038 4.15161 23.4481C4.26428 23.4105 4.26428 23.4105 4.37012 23.3935C4.37012 23.3574 4.37012 23.3213 4.37012 23.2842C4.46025 23.2481 4.55038 23.2121 4.64325 23.1749C4.64325 23.1389 4.64325 23.1028 4.64325 23.0657C4.71536 23.0477 4.78746 23.0296 4.86175 23.0111C4.86175 22.975 4.86175 22.939 4.86175 22.9018C5.02563 22.7926 5.02563 22.7926 5.18951 22.7926C5.18951 22.7565 5.18951 22.7205 5.18951 22.6833C8.48503 20.9757 12.0386 21.0798 15.0223 23.3935Z" fill="#00005C"/>
<path d="M13.3615 0.00600479C13.4429 0.00565532 13.4429 0.00565532 13.5259 0.00529879C13.616 0.00533592 13.616 0.00533592 13.7079 0.00537381C13.8023 0.00509861 13.8023 0.00509861 13.8985 0.00481784C14.1083 0.00429557 14.3181 0.00419199 14.5278 0.00413351C14.6371 0.00400235 14.7463 0.00387108 14.8555 0.00372597C15.2004 0.00327997 15.5453 0.00314785 15.8902 0.00318662C16.2428 0.0032191 16.5953 0.00264977 16.9479 0.00178033C17.2523 0.00105717 17.5567 0.000773391 17.8611 0.00080793C18.0421 0.000821653 18.223 0.000624981 18.404 8.80603e-05C21.18 -0.00736331 23.8451 0.455378 25.9531 2.41389C26.0141 2.47576 26.0746 2.53826 26.1342 2.60145C26.2265 2.69548 26.3243 2.77705 26.4259 2.86071C27.5334 3.82552 28.344 5.29316 28.7885 6.67774C28.8008 6.71593 28.8131 6.75412 28.8258 6.79347C29.3046 8.31426 29.443 10.0885 29.0617 11.6487C29.0454 11.7161 29.0454 11.7161 29.0288 11.7847C28.7757 12.799 28.413 13.7644 27.8599 14.6532C27.824 14.7127 27.7882 14.7722 27.7513 14.8335C27.5611 15.1434 27.5611 15.1434 27.4775 15.2541C27.4414 15.2541 27.4054 15.2541 27.3682 15.2541C27.3502 15.3262 27.3322 15.3983 27.3136 15.4726C27.2776 15.4726 27.2415 15.4726 27.2044 15.4726C27.1863 15.5447 27.1683 15.6168 27.1497 15.6911C27.1137 15.6911 27.0776 15.6911 27.0405 15.6911C27.0303 15.7294 27.0202 15.7677 27.0098 15.8072C26.9177 15.9913 26.8133 16.0728 26.6551 16.1996C26.5013 16.3333 26.3761 16.4875 26.2473 16.6449C26.2206 16.6727 26.194 16.7004 26.1665 16.729C26.1304 16.729 26.0944 16.729 26.0572 16.729C26.0437 16.7614 26.0302 16.7938 26.0162 16.8272C25.9376 16.9658 25.8577 17.0317 25.7295 17.125C25.6911 17.1535 25.6528 17.1819 25.6134 17.2113C25.5109 17.2753 25.5109 17.2753 25.4017 17.2753C25.4017 17.3113 25.4017 17.3474 25.4017 17.3845C25.2618 17.51 25.2116 17.5484 25.0193 17.5484C25.0193 17.5845 25.0193 17.6205 25.0193 17.6577C24.9652 17.6577 24.9111 17.6577 24.8554 17.6577C24.8554 17.6937 24.8554 17.7298 24.8554 17.7669C23.4933 18.5288 23.4933 18.5288 22.7796 18.7502C22.7396 18.7627 22.6995 18.7752 22.6583 18.7881C22.5158 18.8322 22.3729 18.875 22.2299 18.9175C22.1858 18.9309 22.1417 18.9443 22.0962 18.9582C21.2551 19.2007 20.4316 19.2658 19.5614 19.2578C19.4611 19.2575 19.3609 19.2573 19.2606 19.2571C19.0004 19.2565 18.7401 19.2549 18.4799 19.2531C18.2129 19.2514 17.9459 19.2506 17.6789 19.2498C17.1576 19.2481 16.6364 19.2453 16.1152 19.2418C16.1139 18.5448 16.113 17.8477 16.1124 17.1507C16.1121 16.827 16.1117 16.5034 16.1111 16.1798C16.1105 15.8677 16.1102 15.5557 16.11 15.2436C16.1099 15.1243 16.1097 15.005 16.1094 14.8856C16.109 14.7191 16.109 14.5526 16.109 14.3861C16.1088 14.3362 16.1086 14.2863 16.1084 14.235C16.109 13.8947 16.109 13.8947 16.1698 13.8338C16.2928 13.8282 16.416 13.8264 16.5391 13.8261C16.5778 13.8259 16.6164 13.8257 16.6562 13.8255C16.7406 13.8251 16.8249 13.8248 16.9093 13.8246C17.0435 13.8242 17.1778 13.8233 17.312 13.8223C17.6939 13.8195 18.0757 13.8169 18.4576 13.816C18.6911 13.8154 18.9245 13.8138 19.158 13.8116C19.2464 13.8109 19.3347 13.8106 19.4231 13.8107C20.2242 13.8116 20.8979 13.6905 21.6111 13.2969C21.7417 13.2329 21.7417 13.2329 21.9056 13.2329C21.9056 13.1969 21.9056 13.1608 21.9056 13.1237C21.9597 13.1237 22.0138 13.1237 22.0695 13.1237C22.0695 13.0876 22.0695 13.0515 22.0695 13.0144C22.146 12.9659 22.2226 12.9174 22.2995 12.8695C22.455 12.7524 22.5697 12.603 22.6915 12.4521C22.7796 12.3589 22.7796 12.3589 22.9435 12.3043C22.9836 12.1942 22.9836 12.1942 22.9981 12.0858C23.0342 12.0858 23.0702 12.0858 23.1074 12.0858C23.1074 12.0317 23.1074 11.9776 23.1074 11.9219C23.1434 11.9219 23.1795 11.9219 23.2166 11.9219C23.2211 11.8858 23.2256 11.8498 23.2303 11.8126C23.2713 11.6487 23.2713 11.6487 23.3703 11.461C23.8638 10.5154 23.9008 9.32837 23.5849 8.32181C23.3933 7.77973 23.1127 7.26737 22.725 6.84162C22.688 6.80028 22.6511 6.75895 22.613 6.71636C21.8091 5.8639 20.7125 5.51265 19.5647 5.47019C19.392 5.46714 19.2194 5.46564 19.0468 5.46474C18.9817 5.4642 18.9166 5.46366 18.8495 5.4631C18.6728 5.46168 18.4961 5.46048 18.3194 5.45938C18.1341 5.45818 17.9488 5.45669 17.7634 5.45523C17.4133 5.45252 17.0631 5.45006 16.713 5.44769C16.314 5.44498 15.915 5.44199 15.5161 5.43897C14.6961 5.43277 13.8761 5.42693 13.0561 5.42133C13.0549 4.72428 13.0539 4.02722 13.0533 3.33017C13.053 3.00654 13.0526 2.68291 13.052 2.35927C13.0514 2.04723 13.0511 1.73519 13.0509 1.42315C13.0508 1.30381 13.0506 1.18447 13.0503 1.06514C13.0499 0.898611 13.0499 0.732088 13.0499 0.565562C13.0497 0.5157 13.0495 0.465838 13.0493 0.414465C13.05 0.00660651 13.05 0.0066065 13.3615 0.00600479Z" fill="#00005C"/>
<path d="M99.2511 13.7491C99.3849 13.8572 99.5047 13.9737 99.625 14.0967C99.7324 14.2289 99.7324 14.2289 99.8571 14.2162C99.8684 14.1767 99.8797 14.1373 99.8913 14.0967C99.9923 13.8899 100.109 13.8052 100.294 13.6699C100.33 13.6699 100.366 13.6699 100.403 13.6699C100.403 13.6339 100.403 13.5978 100.403 13.5607C101.355 12.8126 102.749 12.6908 103.913 12.8083C104.934 12.9451 105.902 13.4658 106.546 14.2751C107.173 15.1297 107.405 16.0147 107.403 17.0606C107.403 17.1588 107.403 17.1588 107.403 17.2591C107.403 17.4377 107.403 17.6163 107.403 17.795C107.403 17.9821 107.403 18.1692 107.403 18.3563C107.403 18.6701 107.403 18.984 107.403 19.2978C107.402 19.6609 107.403 20.0241 107.403 20.3872C107.403 20.6992 107.403 21.0111 107.403 21.323C107.403 21.5093 107.403 21.6956 107.403 21.8819C107.403 22.089 107.403 22.2962 107.403 22.5034C107.403 22.5654 107.403 22.6274 107.403 22.6913C107.403 22.7754 107.403 22.7754 107.403 22.8612C107.402 22.9102 107.402 22.9592 107.402 23.0097C107.396 23.1203 107.396 23.1203 107.341 23.1749C107.261 23.1803 107.18 23.1819 107.1 23.182C107.049 23.1821 106.997 23.1823 106.945 23.1825C106.889 23.1824 106.833 23.1823 106.776 23.1822C106.691 23.1822 106.691 23.1822 106.604 23.1823C106.484 23.1824 106.363 23.1823 106.243 23.182C106.058 23.1817 105.873 23.182 105.688 23.1824C105.572 23.1823 105.455 23.1823 105.339 23.1822C105.283 23.1823 105.227 23.1824 105.17 23.1825C105.093 23.1822 105.093 23.1822 105.015 23.182C104.969 23.1819 104.924 23.1819 104.877 23.1818C104.774 23.1749 104.774 23.1749 104.719 23.1203C104.713 23.0438 104.712 22.967 104.711 22.8904C104.711 22.8408 104.711 22.7912 104.71 22.74C104.71 22.6852 104.71 22.6303 104.71 22.5737C104.71 22.5163 104.71 22.4588 104.709 22.3996C104.709 22.2742 104.708 22.1488 104.708 22.0234C104.707 21.8245 104.706 21.6256 104.705 21.4266C104.702 20.8608 104.699 20.295 104.697 19.7292C104.696 19.3835 104.694 19.0377 104.691 18.692C104.691 18.5605 104.69 18.4291 104.69 18.2976C104.713 17.0019 104.713 17.0019 104.173 15.855C104.055 15.7379 103.938 15.6574 103.79 15.5818C103.758 15.5645 103.725 15.5472 103.691 15.5293C103.121 15.2866 102.354 15.3528 101.792 15.5746C101.54 15.6927 101.357 15.8177 101.182 16.0325C101.121 16.1069 101.121 16.1069 101.059 16.1827C101.023 16.1827 100.987 16.1827 100.95 16.1827C100.941 16.2385 100.941 16.2385 100.933 16.2954C100.888 16.4879 100.809 16.6567 100.731 16.8382C100.688 17.0186 100.669 17.1867 100.668 17.372C100.668 17.4228 100.667 17.4737 100.667 17.5261C100.667 17.6088 100.667 17.6088 100.666 17.6931C100.666 17.7517 100.665 17.8102 100.665 17.8706C100.664 17.9975 100.663 18.1245 100.662 18.2514C100.661 18.452 100.66 18.6526 100.658 18.8532C100.654 19.3511 100.651 19.849 100.648 20.3469C100.645 20.7681 100.642 21.1892 100.639 21.6104C100.637 21.8086 100.636 22.0068 100.635 22.2049C100.634 22.3256 100.633 22.4462 100.632 22.5668C100.632 22.6502 100.632 22.6502 100.632 22.7352C100.631 22.7854 100.631 22.8357 100.63 22.8874C100.63 22.9313 100.63 22.9752 100.629 23.0205C100.622 23.1203 100.622 23.1203 100.567 23.1749C100.487 23.1803 100.407 23.1819 100.326 23.182C100.275 23.1821 100.224 23.1823 100.171 23.1825C100.115 23.1824 100.06 23.1823 100.002 23.1822C99.9171 23.1822 99.9171 23.1822 99.8302 23.1823C99.7099 23.1824 99.5895 23.1823 99.4692 23.182C99.2844 23.1817 99.0995 23.182 98.9146 23.1824C98.798 23.1823 98.6815 23.1823 98.5649 23.1822C98.5092 23.1823 98.4535 23.1824 98.3961 23.1825C98.3192 23.1822 98.3192 23.1822 98.2408 23.182C98.1955 23.1819 98.1502 23.1819 98.1035 23.1818C97.9998 23.1749 97.9998 23.1749 97.9452 23.1203C97.9397 23.0445 97.9379 22.9684 97.9377 22.8924C97.9374 22.8433 97.9371 22.7941 97.9368 22.7435C97.9367 22.6891 97.9366 22.6348 97.9366 22.5788C97.9363 22.5218 97.936 22.4649 97.9357 22.4062C97.9352 22.282 97.9347 22.1577 97.9343 22.0335C97.9337 21.8364 97.9326 21.6393 97.9314 21.4423C97.9281 20.8817 97.9251 20.3211 97.9233 19.7605C97.9221 19.4179 97.9202 19.0754 97.9178 18.7328C97.917 18.6026 97.9165 18.4724 97.9164 18.3421C97.9352 17.0321 97.9352 17.0321 97.3921 15.872C96.8298 15.4197 96.2363 15.3715 95.5416 15.418C95.2335 15.4719 94.984 15.5739 94.7222 15.7457C94.6862 15.7457 94.6501 15.7457 94.613 15.7457C94.595 15.7998 94.5769 15.8539 94.5584 15.9096C94.4525 16.0291 94.4525 16.0291 94.3399 16.1281C94.3038 16.1281 94.2678 16.1281 94.2306 16.1281C94.216 16.1653 94.2013 16.2025 94.1862 16.2408C94.1384 16.3589 94.088 16.476 94.036 16.5924C93.9349 16.8386 93.8963 17.0544 93.8946 17.3194C93.8939 17.3964 93.8939 17.3964 93.8932 17.4749C93.893 17.5306 93.8927 17.5862 93.8925 17.6435C93.892 17.7026 93.8916 17.7617 93.8911 17.8226C93.8902 17.9507 93.8893 18.0788 93.8886 18.2069C93.8875 18.4093 93.886 18.6117 93.8844 18.8142C93.8809 19.2801 93.8778 19.746 93.8748 20.2119C93.8718 20.6735 93.8686 21.135 93.8651 21.5966C93.8636 21.7966 93.8625 21.9966 93.8613 22.1966C93.8604 22.3183 93.8595 22.4401 93.8586 22.5618C93.8583 22.6179 93.8581 22.6739 93.8579 22.7317C93.8572 22.8078 93.8572 22.8078 93.8565 22.8854C93.8562 22.9297 93.8559 22.974 93.8556 23.0196C93.8482 23.1203 93.8482 23.1203 93.7936 23.1749C93.7134 23.1803 93.6329 23.1819 93.5526 23.182C93.5014 23.1821 93.4501 23.1823 93.3974 23.1825C93.3417 23.1824 93.2859 23.1823 93.2285 23.1822C93.1434 23.1822 93.1434 23.1822 93.0565 23.1823C92.9362 23.1824 92.8159 23.1823 92.6955 23.182C92.5107 23.1817 92.3258 23.182 92.1409 23.1824C92.0243 23.1823 91.9078 23.1823 91.7912 23.1822C91.7355 23.1823 91.6798 23.1824 91.6224 23.1825C91.5456 23.1822 91.5456 23.1822 91.4672 23.182C91.4218 23.1819 91.3765 23.1819 91.3298 23.1818C91.2261 23.1749 91.2261 23.1749 91.1715 23.1203C91.1662 22.9904 91.1644 22.8621 91.165 22.7321C91.1649 22.691 91.1649 22.6499 91.1648 22.6076C91.1647 22.4689 91.165 22.3301 91.1653 22.1914C91.1653 22.0924 91.1653 21.9933 91.1653 21.8943C91.1653 21.6246 91.1656 21.3548 91.166 21.0851C91.1663 20.8035 91.1664 20.522 91.1664 20.2404C91.1666 19.7068 91.167 19.1733 91.1676 18.6397C91.1682 18.0324 91.1685 17.4251 91.1688 16.8178C91.1693 15.5682 91.1703 14.3186 91.1715 13.069C92.0368 13.069 92.9021 13.069 93.7936 13.069C93.8206 13.3665 93.8206 13.3665 93.8482 13.6699C93.9203 13.6339 93.9924 13.5978 94.0667 13.5607C94.0667 13.5246 94.0667 13.4885 94.0667 13.4514C95.7086 12.4392 97.7299 12.5926 99.2511 13.7491Z" fill="#00005C"/>
<path d="M55.0635 8.26196C55.9469 8.26196 56.8302 8.26196 57.7402 8.26196C57.7415 10.1539 57.7425 12.0458 57.743 13.9378C57.7431 14.1609 57.7432 14.384 57.7432 14.6072C57.7433 14.6738 57.7433 14.6738 57.7433 14.7418C57.7435 15.462 57.744 16.1822 57.7445 16.9024C57.745 17.6409 57.7453 18.3794 57.7454 19.1178C57.7455 19.5739 57.7457 20.0299 57.7461 20.4859C57.7464 20.7982 57.7465 21.1105 57.7464 21.4228C57.7464 21.6033 57.7465 21.7837 57.7468 21.9642C57.747 22.1593 57.747 22.3545 57.7468 22.5497C57.747 22.6362 57.747 22.6362 57.7473 22.7244C57.7472 22.7763 57.7471 22.8281 57.747 22.8816C57.747 22.9267 57.747 22.9718 57.747 23.0183C57.7402 23.1204 57.7402 23.1204 57.6856 23.175C57.6054 23.1803 57.525 23.182 57.4446 23.182C57.3934 23.1822 57.3422 23.1824 57.2894 23.1826C57.2337 23.1825 57.178 23.1824 57.1206 23.1822C57.0354 23.1823 57.0354 23.1823 56.9485 23.1824C56.8282 23.1824 56.7079 23.1823 56.5876 23.1821C56.4027 23.1818 56.2178 23.1821 56.0329 23.1825C55.9164 23.1824 55.7998 23.1823 55.6832 23.1822C55.6275 23.1823 55.5718 23.1825 55.5144 23.1826C55.4632 23.1824 55.412 23.1822 55.3592 23.182C55.3139 23.182 55.2685 23.182 55.2218 23.1819C55.1182 23.175 55.1182 23.175 55.0635 23.1204C55.0508 23.0194 55.041 22.918 55.0328 22.8165C55.0282 22.7612 55.0237 22.7059 55.0189 22.649C55.0156 22.6062 55.0123 22.5635 55.0089 22.5195C54.9739 22.5445 54.9389 22.5696 54.9029 22.5954C53.8689 23.3289 52.7118 23.5606 51.4533 23.3542C50.0821 23.0857 48.9337 22.2934 48.1395 21.1505C47.2941 19.8357 47.1259 18.1991 47.4408 16.6921C47.594 16.0371 47.855 15.4807 48.2352 14.9264C48.2632 14.8839 48.2911 14.8415 48.3199 14.7977C48.379 14.7105 48.443 14.6266 48.5084 14.544C48.5444 14.544 48.5805 14.544 48.6176 14.544C48.6266 14.5068 48.6356 14.4696 48.6449 14.4313C48.7676 14.1911 48.9543 14.054 49.1639 13.8885C49.2099 13.8522 49.2559 13.8158 49.3032 13.7784C50.3838 12.959 51.7223 12.653 53.0646 12.8115C53.8029 12.9308 54.402 13.2365 55.0089 13.67C55.0269 11.8853 55.045 10.1007 55.0635 8.26196ZM50.6934 16.1282C50.662 16.1562 50.6305 16.1842 50.598 16.2131C50.5116 16.2953 50.5116 16.2953 50.5295 16.4559C50.4935 16.4559 50.4574 16.4559 50.4203 16.4559C50.0237 17.3505 49.8496 18.2935 50.2018 19.2419C50.4995 19.9505 50.8473 20.3676 51.5589 20.6745C52.2962 20.9561 53.0115 20.9392 53.7497 20.6547C54.016 20.5285 54.2098 20.3921 54.408 20.1705C54.4431 20.1463 54.4782 20.1221 54.5143 20.0971C54.8949 19.7903 55.0903 19.1605 55.1728 18.6956C55.2598 17.7331 55.1442 16.8682 54.5309 16.0906C54.0748 15.5905 53.4245 15.3504 52.7581 15.2996C51.9533 15.2919 51.2602 15.5529 50.6934 16.1282Z" fill="#00005C"/>
<path d="M87.987 13.677C88.2195 13.8667 88.4429 14.0621 88.6585 14.2708C88.7201 14.3303 88.7201 14.3303 88.7829 14.3909C89.7441 15.3859 90.1569 16.7216 90.1505 18.081C90.1501 18.1824 90.1501 18.1824 90.1497 18.2858C90.1435 18.7701 90.1095 19.2127 89.9695 19.6788C89.951 19.7415 89.9324 19.8042 89.9132 19.8687C89.7356 20.41 89.4775 21.0477 89.0955 21.4815C89.0595 21.4815 89.0234 21.4815 88.9863 21.4815C88.9773 21.5187 88.9682 21.5559 88.959 21.5942C88.8554 21.797 88.7174 21.9048 88.5424 22.047C88.428 22.1398 88.428 22.1398 88.3308 22.3009C88.2767 22.3009 88.2226 22.3009 88.1669 22.3009C88.1488 22.355 88.1308 22.4091 88.1122 22.4648C87.9814 22.5517 87.8536 22.6288 87.7162 22.7038C87.6766 22.7255 87.6371 22.7473 87.5963 22.7697C86.4726 23.3757 85.1629 23.6037 83.9116 23.2827C83.3604 23.1098 82.8453 22.879 82.4311 22.4648C82.4131 23.9971 82.395 25.5293 82.3765 27.108C81.5112 27.108 80.6459 27.108 79.7544 27.108C79.7544 22.4752 79.7544 17.8423 79.7544 13.069C80.6197 13.069 81.485 13.069 82.3765 13.069C82.3765 13.2853 82.3765 13.5017 82.3765 13.7245C82.4125 13.7245 82.4486 13.7245 82.4857 13.7245C82.5128 13.6434 82.5128 13.6434 82.5403 13.5607C82.9229 13.285 83.3472 13.095 83.7968 12.9598C83.8473 12.9434 83.8979 12.9271 83.95 12.9103C85.2833 12.5363 86.8809 12.8451 87.987 13.677ZM82.8152 16.2566C82.2451 17.0175 82.1746 17.9189 82.2924 18.8372C82.4386 19.4908 82.7785 20.0294 83.3051 20.4436C84.0528 20.8916 84.7913 20.9586 85.6267 20.7714C85.8922 20.6955 86.1263 20.5823 86.3642 20.4436C86.3642 20.4075 86.3642 20.3715 86.3642 20.3343C86.4135 20.3254 86.4135 20.3254 86.4638 20.3162C86.7361 20.2326 86.8798 19.9514 87.0127 19.7172C87.4424 18.8969 87.5707 17.9487 87.3167 17.0431C87.0583 16.3558 86.6375 15.8423 85.9694 15.5308C84.8361 15.0951 83.6123 15.3044 82.8152 16.2566Z" fill="#00005C"/>
<path d="M127.99 8.26194C128.363 8.26056 128.735 8.2596 129.107 8.25894C129.234 8.25866 129.361 8.25829 129.488 8.25782C129.67 8.25716 129.852 8.25685 130.033 8.25661C130.09 8.25632 130.148 8.25604 130.206 8.25575C130.259 8.25575 130.311 8.25574 130.365 8.25574C130.412 8.25562 130.458 8.2555 130.506 8.25537C130.612 8.26194 130.612 8.26194 130.667 8.31657C130.672 8.42441 130.674 8.53245 130.673 8.64043C130.674 8.71083 130.674 8.78123 130.674 8.85376C130.674 8.93251 130.673 9.01125 130.673 9.08999C130.673 9.17234 130.673 9.25469 130.673 9.33704C130.673 9.56129 130.673 9.78555 130.672 10.0098C130.672 10.2439 130.672 10.478 130.672 10.7121C130.672 11.1557 130.671 11.5993 130.671 12.0429C130.67 12.5478 130.67 13.0528 130.67 13.5577C130.669 14.5966 130.668 15.6355 130.667 16.6744C130.764 16.669 130.861 16.6626 130.959 16.6558C131.013 16.6524 131.067 16.649 131.123 16.6454C131.283 16.6314 131.283 16.6314 131.408 16.4798C131.434 16.4359 131.46 16.3919 131.486 16.3467C131.522 16.3467 131.558 16.3467 131.596 16.3467C131.608 16.3072 131.62 16.2678 131.633 16.2272C131.72 16.042 131.83 15.9411 131.978 15.8004C132.026 15.7441 132.074 15.6872 132.121 15.6297C132.216 15.5151 132.31 15.4133 132.415 15.3087C132.443 15.2693 132.471 15.2299 132.5 15.1893C132.526 15.1566 132.552 15.1239 132.579 15.0902C132.615 15.0902 132.651 15.0902 132.688 15.0902C132.708 15.026 132.708 15.026 132.729 14.9605C132.809 14.7931 132.855 14.7834 133.016 14.7079C133.073 14.6068 133.073 14.6068 133.125 14.4894C133.234 14.3391 133.234 14.3391 133.344 14.2162C133.38 14.2162 133.416 14.2162 133.453 14.2162C133.473 14.152 133.473 14.152 133.494 14.0865C133.574 13.9177 133.621 13.9138 133.781 13.8338C133.799 13.7888 133.817 13.7437 133.835 13.6973C133.902 13.5292 133.953 13.5291 134.108 13.4515C134.171 13.3165 134.171 13.3165 134.218 13.1783C134.327 13.0691 134.327 13.0691 134.467 13.0559C134.555 13.0563 134.555 13.0563 134.645 13.0567C134.745 13.0567 134.745 13.0567 134.847 13.0567C134.92 13.0572 134.993 13.0578 135.066 13.0584C135.141 13.0586 135.216 13.0588 135.29 13.0589C135.486 13.0593 135.683 13.0604 135.879 13.0616C136.079 13.0627 136.28 13.0632 136.48 13.0637C136.873 13.0649 137.266 13.0668 137.659 13.0691C137.659 13.2329 137.659 13.2329 137.55 13.3456C137.525 13.3686 137.5 13.3915 137.475 13.4152C137.319 13.574 137.19 13.7548 137.056 13.9318C136.95 14.0508 136.872 14.0957 136.73 14.1616C136.694 14.2525 136.657 14.3435 136.621 14.4347C136.533 14.5283 136.441 14.6189 136.348 14.7079C136.248 14.8239 136.149 14.941 136.05 15.0589C136.022 15.0873 135.994 15.1156 135.966 15.1449C135.93 15.1449 135.894 15.1449 135.856 15.1449C135.838 15.204 135.838 15.204 135.819 15.2644C135.732 15.45 135.624 15.552 135.474 15.6911C135.252 15.9016 135.065 16.1308 134.876 16.3706C134.636 16.6707 134.38 16.949 134.108 17.2207C134.035 17.3115 133.962 17.4025 133.89 17.4938C133.85 17.5321 133.811 17.5704 133.77 17.6099C133.659 17.7105 133.659 17.7105 133.617 17.8762C133.674 17.9793 133.674 17.9793 133.767 18.0845C133.803 18.1281 133.838 18.1718 133.875 18.2168C133.916 18.2666 133.957 18.3165 133.999 18.3678C134.068 18.4555 134.137 18.5432 134.205 18.6312C134.481 18.985 134.762 19.3335 135.046 19.6809C135.262 19.9458 135.474 20.2135 135.684 20.4828C135.872 20.7239 136.065 20.9613 136.259 21.1982C136.541 21.5428 136.814 21.8935 137.081 22.2499C137.257 22.4831 137.442 22.7015 137.642 22.9148C137.714 23.0111 137.714 23.0111 137.714 23.175C137.296 23.1902 136.878 23.2018 136.46 23.2089C136.266 23.2123 136.072 23.2169 135.878 23.2244C134.518 23.2754 134.518 23.2754 134.219 23.0381C134.073 22.8844 133.981 22.7102 133.89 22.5194C133.843 22.4551 133.794 22.3918 133.742 22.3308C133.704 22.2804 133.666 22.23 133.627 22.178C133.42 21.9049 133.206 21.6377 132.989 21.3723C132.774 21.11 132.562 20.8462 132.357 20.5768C132.126 20.2742 131.89 19.9765 131.651 19.6801C131.625 19.6475 131.599 19.6149 131.572 19.5813C131.549 19.5527 131.526 19.524 131.502 19.4945C131.432 19.4057 131.432 19.4057 131.365 19.2918C131.274 19.1724 131.274 19.1724 131.12 19.1659C131.066 19.1684 131.013 19.171 130.957 19.1736C130.903 19.1755 130.849 19.1775 130.793 19.1795C130.751 19.1821 130.71 19.1846 130.667 19.1872C130.667 19.2356 130.667 19.2839 130.667 19.3337C130.668 19.7887 130.669 20.2437 130.67 20.6986C130.67 20.9326 130.67 21.1665 130.671 21.4004C130.672 21.626 130.672 21.8516 130.672 22.0773C130.672 22.1635 130.672 22.2497 130.673 22.3359C130.673 22.4563 130.673 22.5768 130.673 22.6973C130.673 22.7659 130.673 22.8346 130.673 22.9053C130.667 23.0657 130.667 23.0657 130.612 23.175C130.248 23.1763 129.883 23.1773 129.518 23.178C129.394 23.1782 129.27 23.1786 129.146 23.1791C128.968 23.1797 128.79 23.18 128.612 23.1803C128.556 23.1806 128.5 23.1809 128.442 23.1811C128.391 23.1811 128.34 23.1812 128.287 23.1812C128.241 23.1813 128.196 23.1814 128.149 23.1815C128.045 23.175 128.045 23.175 127.99 23.1203C127.985 23.0409 127.983 22.9612 127.983 22.8816C127.983 22.8297 127.983 22.7778 127.983 22.7244C127.983 22.6667 127.983 22.6091 127.984 22.5497C127.984 22.489 127.984 22.4282 127.983 22.3657C127.983 22.1605 127.984 21.9553 127.984 21.7502C127.984 21.6038 127.984 21.4574 127.984 21.311C127.984 20.9949 127.984 20.6789 127.984 20.3628C127.985 19.9059 127.985 19.4489 127.985 18.992C127.985 18.2506 127.986 17.5093 127.986 16.768C127.987 16.0477 127.987 15.3274 127.987 14.6071C127.987 14.5628 127.987 14.5184 127.987 14.4727C127.987 14.2501 127.987 14.0275 127.987 13.805C127.988 11.9573 127.989 10.1096 127.99 8.26194Z" fill="#00005C"/>
<path d="M115.917 13.6152C115.971 13.6693 115.971 13.6693 116.026 13.7245C116.044 13.5082 116.062 13.2919 116.081 13.069C116.946 13.069 117.811 13.069 118.703 13.069C118.703 16.4039 118.703 19.7389 118.703 23.1749C117.856 23.1749 117.008 23.1749 116.136 23.1749C116.041 23.0798 116.061 22.9458 116.05 22.8164C116.046 22.7611 116.041 22.7058 116.036 22.6489C116.033 22.6061 116.03 22.5634 116.026 22.5194C115.995 22.5432 115.964 22.567 115.932 22.5915C114.915 23.3386 113.753 23.5347 112.517 23.3658C111.276 23.1397 110.132 22.4932 109.362 21.4814C108.407 20.0994 108.087 18.5385 108.379 16.8928C108.538 16.1357 108.846 15.387 109.307 14.7624C109.343 14.7624 109.379 14.7624 109.416 14.7624C109.421 14.7286 109.425 14.6948 109.43 14.66C109.484 14.507 109.548 14.5034 109.69 14.4346C109.705 14.4022 109.72 14.3699 109.736 14.3365C109.815 14.1845 109.916 14.0968 110.045 13.984C110.088 13.9454 110.131 13.9068 110.176 13.867C110.291 13.7791 110.291 13.7791 110.4 13.7791C110.4 13.7431 110.4 13.707 110.4 13.6699C110.454 13.6699 110.508 13.6699 110.564 13.6699C110.564 13.6338 110.564 13.5978 110.564 13.5606C112.322 12.654 114.216 12.4051 115.917 13.6152ZM111.82 16.0188C111.777 16.0504 111.733 16.0819 111.689 16.1144C111.201 16.5373 111.041 17.3222 110.985 17.9337C110.959 18.7394 111.197 19.593 111.748 20.1977C112.319 20.709 113.071 20.9077 113.824 20.8771C114.269 20.8354 114.648 20.7008 115.043 20.4982C115.043 20.4621 115.043 20.4261 115.043 20.3889C115.097 20.3889 115.151 20.3889 115.207 20.3889C115.291 20.3125 115.291 20.3125 115.367 20.2114C115.456 20.1013 115.54 20.0015 115.644 19.9054C116.157 19.3546 116.221 18.545 116.204 17.8317C116.17 17.0941 115.858 16.4591 115.353 15.9258C114.829 15.4765 114.16 15.277 113.475 15.2988C112.847 15.3479 112.246 15.528 111.82 16.0188Z" fill="#00005C"/>
<path d="M76.8528 13.7523C77.9247 14.6093 78.472 15.8202 78.696 17.1502C78.7321 17.4761 78.7243 17.8048 78.7233 18.1322C78.7235 18.1983 78.7237 18.2644 78.7239 18.3325C78.7238 18.428 78.7238 18.428 78.7237 18.5255C78.7237 18.5831 78.7236 18.6406 78.7235 18.7C78.7165 18.8594 78.7165 18.8594 78.6618 19.1326C76.3724 19.1326 74.083 19.1326 71.7243 19.1326C72.0079 19.8699 72.2541 20.3858 72.9702 20.7195C73.0097 20.7366 73.0492 20.7537 73.0899 20.7714C73.1266 20.7879 73.1633 20.8045 73.2011 20.8215C74.0118 21.1261 75.007 20.9616 75.7737 20.6184C76.1999 20.4179 76.5943 20.1851 76.9684 19.8973C77.1911 20.1056 77.3594 20.327 77.5283 20.5802C77.5807 20.6578 77.6332 20.7354 77.6856 20.813C77.7117 20.8517 77.7377 20.8903 77.7646 20.9302C77.8387 21.039 77.9143 21.1466 77.9907 21.2538C78.0136 21.286 78.0364 21.3182 78.0599 21.3513C78.1223 21.439 78.185 21.5265 78.2477 21.614C78.3341 21.7546 78.3341 21.7546 78.3341 21.9185C78.2447 21.9758 78.1535 22.0305 78.0609 22.0824C78.0429 22.1185 78.0249 22.1545 78.0063 22.1916C77.9522 22.1916 77.8982 22.1916 77.8424 22.1916C77.8424 22.2277 77.8424 22.2638 77.8424 22.3009C77.6719 22.4278 77.4819 22.5258 77.2962 22.6287C77.2388 22.6606 77.1814 22.6926 77.1223 22.7255C75.734 23.4606 73.9536 23.6568 72.4415 23.2123C71.1113 22.7849 70.0893 21.901 69.4402 20.6689C68.7692 19.2541 68.6703 17.5897 69.1765 16.1057C69.3663 15.5798 69.6113 15.1187 69.9216 14.6532C69.9577 14.6532 69.9937 14.6532 70.0309 14.6532C70.041 14.616 70.0511 14.5788 70.0616 14.5405C70.2027 14.2522 70.4695 14.0047 70.741 13.8338C70.777 13.8338 70.8131 13.8338 70.8502 13.8338C70.8502 13.7978 70.8502 13.7617 70.8502 13.7246C70.9224 13.7065 70.9945 13.6885 71.0688 13.6699C71.0688 13.6339 71.0688 13.5978 71.0688 13.5607C72.8968 12.5445 75.1364 12.4412 76.8528 13.7523ZM72.3149 15.7867C72.2045 15.8975 72.2045 15.8975 72.2159 16.0189C72.1799 16.0189 72.1438 16.0189 72.1067 16.0189C72.0628 16.1005 72.0197 16.1825 71.9769 16.2647C71.9528 16.3103 71.9288 16.3559 71.9039 16.403C71.8108 16.6054 71.8108 16.6054 71.7243 17.0021C73.1123 17.0021 74.5004 17.0021 75.9305 17.0021C75.8528 16.4581 75.6483 15.9971 75.2391 15.6194C74.3752 14.9973 73.0948 15.0464 72.3149 15.7867Z" fill="#00005C"/>
<path d="M66.5896 13.6698C67.5112 14.4011 68.0829 15.3287 68.3922 16.4558C68.4097 16.5179 68.4272 16.58 68.4452 16.644C68.5651 17.1582 68.5703 17.6682 68.5698 18.1936C68.5697 18.2306 68.5697 18.2676 68.5697 18.3057C68.5676 18.9342 68.5676 18.9342 68.5015 19.1324C66.2121 19.1324 63.9227 19.1324 61.5639 19.1324C61.8732 19.8746 62.1023 20.3957 62.8319 20.7463C63.6926 21.0796 64.6528 21.0284 65.4988 20.6695C65.9673 20.4598 66.4004 20.2108 66.8081 19.8972C67.0693 20.1362 67.2603 20.412 67.4602 20.703C67.4927 20.7497 67.5252 20.7965 67.5587 20.8446C67.6233 20.9379 67.6876 21.0313 67.7516 21.1249C67.815 21.2175 67.8788 21.3098 67.9431 21.4017C67.9881 21.4669 67.9881 21.4669 68.034 21.5335C68.0609 21.5721 68.0878 21.6108 68.1156 21.6507C68.1737 21.7545 68.1737 21.7545 68.1737 21.9184C68.1298 21.933 68.0859 21.9477 68.0406 21.9628C67.9944 21.9842 67.9482 22.0056 67.9006 22.0276C67.8826 22.0817 67.8645 22.1358 67.846 22.1915C67.705 22.3184 67.6574 22.3554 67.4636 22.3554C67.4636 22.3915 67.4636 22.4275 67.4636 22.4647C66.7221 22.9019 65.9684 23.2136 65.1147 23.3387C65.0155 23.3536 65.0155 23.3536 64.9143 23.3688C63.3238 23.5596 61.8557 23.2765 60.5807 22.3008C60.5438 22.2734 60.507 22.246 60.4691 22.2178C59.4057 21.3734 58.8895 20.0092 58.7342 18.701C58.621 17.5025 58.8077 16.1097 59.4881 15.0901C59.5161 15.0468 59.544 15.0035 59.5728 14.9589C59.8465 14.5506 60.1644 14.1062 60.5807 13.8337C60.6167 13.8337 60.6528 13.8337 60.6899 13.8337C60.6899 13.7976 60.6899 13.7616 60.6899 13.7244C60.8621 13.5995 61.0508 13.5006 61.2362 13.3967C61.2762 13.3727 61.3163 13.3488 61.3576 13.3241C62.9548 12.434 65.1308 12.6238 66.5896 13.6698ZM62.3833 15.5817C62.3833 15.6178 62.3833 15.6538 62.3833 15.691C62.3518 15.7045 62.3202 15.718 62.2877 15.732C62.015 15.8835 61.8978 16.0911 61.7722 16.3704C61.7444 16.4312 61.7166 16.4919 61.6879 16.5546C61.6075 16.7414 61.6075 16.7414 61.5639 17.002C62.97 17.002 64.3761 17.002 65.8248 17.002C65.6535 16.4309 65.4508 15.889 64.9508 15.5271C64.1436 15.1089 63.1603 15.0452 62.3833 15.5817Z" fill="#00005C"/>
<path d="M145.744 13.9431C145.802 14.0455 145.802 14.0455 145.798 14.1616C145.729 14.3118 145.729 14.3118 145.621 14.4894C145.58 14.5567 145.54 14.624 145.499 14.6915C145.477 14.7284 145.455 14.7653 145.432 14.8034C145.353 14.9398 145.279 15.0782 145.206 15.2177C145.166 15.292 145.166 15.292 145.126 15.3678C145.074 15.4664 145.022 15.5652 144.971 15.6644C144.935 15.7322 144.935 15.7322 144.898 15.8015C144.876 15.8421 144.855 15.8827 144.833 15.9246C144.76 16.0189 144.76 16.0189 144.654 16.0649C144.461 16.0798 144.309 15.9662 144.146 15.8755C143.708 15.6448 143.272 15.4896 142.794 15.3634C142.72 15.3432 142.72 15.3432 142.644 15.3226C142.022 15.182 141.136 15.1232 140.554 15.418C140.516 15.447 140.477 15.4759 140.438 15.5057C140.336 15.5819 140.336 15.5819 140.226 15.5819C140.155 15.795 140.141 16.0157 140.172 16.2374C140.329 16.4904 140.607 16.5483 140.882 16.6198C141.209 16.6847 141.539 16.731 141.869 16.7803C143.627 17.0436 143.627 17.0436 144.238 17.3743C144.274 17.3933 144.31 17.4122 144.348 17.4316C145.069 17.8191 145.605 18.3586 145.894 19.1326C146.154 20.0505 145.907 20.9445 145.47 21.7547C145.434 21.7547 145.398 21.7547 145.361 21.7547C145.352 21.7919 145.343 21.8291 145.334 21.8674C145.214 22.1016 145.027 22.257 144.815 22.4102C144.779 22.4102 144.743 22.4102 144.706 22.4102C144.706 22.4463 144.706 22.4823 144.706 22.5195C142.984 23.4845 141.065 23.6401 139.153 23.1426C138.365 22.9202 137.578 22.5594 136.949 22.0278C136.894 21.864 136.894 21.864 136.934 21.769C136.956 21.7342 136.978 21.6994 137.001 21.6636C137.038 21.6045 137.038 21.6045 137.075 21.5442C137.116 21.4811 137.116 21.4811 137.157 21.4167C137.213 21.3284 137.268 21.24 137.324 21.1517C137.352 21.1068 137.381 21.0619 137.41 21.0157C137.492 20.8859 137.571 20.755 137.649 20.6233C137.673 20.5833 137.697 20.5432 137.722 20.502C137.768 20.4257 137.813 20.3492 137.858 20.2724C138.015 20.015 138.015 20.015 138.158 19.9692C138.208 19.9607 138.208 19.9607 138.26 19.952C138.26 19.9881 138.26 20.0241 138.26 20.0613C138.3 20.0761 138.34 20.091 138.381 20.1063C138.526 20.1677 138.647 20.2386 138.779 20.3242C139.574 20.806 140.414 20.9482 141.329 20.9558C141.388 20.9565 141.447 20.9573 141.508 20.9581C141.921 20.9557 142.289 20.8871 142.685 20.7714C142.751 20.7534 142.817 20.7354 142.886 20.7168C142.928 20.6988 142.969 20.6807 143.012 20.6622C143.03 20.6081 143.048 20.554 143.067 20.4983C143.103 20.4983 143.139 20.4983 143.176 20.4983C143.21 20.1304 143.21 20.1304 143.081 19.795C142.57 19.4611 141.948 19.4021 141.356 19.3238C140.068 19.1522 138.755 18.8652 137.877 17.8216C137.398 17.1647 137.271 16.4301 137.369 15.6297C137.452 15.1316 137.6 14.6105 137.932 14.2162C137.968 14.2162 138.004 14.2162 138.041 14.2162C138.054 14.1858 138.066 14.1554 138.079 14.1241C138.171 13.9616 138.285 13.8492 138.424 13.7246C138.46 13.7246 138.496 13.7246 138.533 13.7246C138.533 13.6886 138.533 13.6525 138.533 13.6154C138.651 13.5485 138.77 13.4822 138.889 13.4167C138.969 13.373 139.048 13.3288 139.126 13.2831C140.965 12.2661 144.101 12.6849 145.744 13.9431Z" fill="#00005C"/>
<path d="M127.444 13.1783C127.412 13.5132 127.359 13.8301 127.278 14.1562C127.267 14.2002 127.257 14.2441 127.246 14.2893C127.223 14.3811 127.201 14.4728 127.178 14.5646C127.143 14.7053 127.109 14.8462 127.074 14.9871C127.052 15.0766 127.03 15.1661 127.008 15.2556C126.998 15.2977 126.988 15.3398 126.977 15.3832C126.904 15.6784 126.904 15.6784 126.843 15.8004C126.582 15.7444 126.341 15.6352 126.094 15.5358C125.521 15.3346 124.745 15.3131 124.176 15.5307C123.9 15.6649 123.747 15.8297 123.565 16.0735C123.529 16.0735 123.493 16.0735 123.456 16.0735C123.44 16.1216 123.425 16.1697 123.408 16.2193C123.372 16.3273 123.333 16.4346 123.289 16.54C123.052 17.17 123.096 17.8298 123.097 18.4933C123.096 18.6269 123.095 18.7604 123.094 18.894C123.092 19.2435 123.092 19.593 123.091 19.9425C123.09 20.5041 123.087 21.0658 123.084 21.6274C123.083 21.8237 123.083 22.0199 123.082 22.2162C123.082 22.3354 123.082 22.4546 123.081 22.5738C123.081 22.6561 123.081 22.6561 123.081 22.7401C123.081 22.7897 123.081 22.8393 123.081 22.8904C123.081 22.9554 123.081 22.9554 123.081 23.0217C123.074 23.1203 123.074 23.1203 123.019 23.1749C122.939 23.1803 122.858 23.1819 122.778 23.182C122.727 23.1822 122.675 23.1824 122.623 23.1825C122.567 23.1824 122.511 23.1823 122.454 23.1822C122.369 23.1823 122.369 23.1823 122.282 23.1824C122.162 23.1824 122.041 23.1823 121.921 23.1821C121.736 23.1818 121.551 23.1821 121.366 23.1824C121.25 23.1824 121.133 23.1823 121.017 23.1822C120.961 23.1823 120.905 23.1824 120.848 23.1825C120.771 23.1823 120.771 23.1823 120.693 23.182C120.647 23.182 120.602 23.1819 120.555 23.1819C120.451 23.1749 120.451 23.1749 120.397 23.1203C120.392 22.9904 120.39 22.8621 120.39 22.7322C120.39 22.6911 120.39 22.65 120.39 22.6076C120.39 22.4689 120.39 22.3302 120.391 22.1914C120.391 22.0924 120.391 21.9934 120.391 21.8943C120.391 21.6246 120.391 21.3549 120.391 21.0851C120.392 20.8036 120.392 20.522 120.392 20.2404C120.392 19.7069 120.392 19.1733 120.393 18.6397C120.394 18.0324 120.394 17.4251 120.394 16.8179C120.395 15.5683 120.396 14.3187 120.397 13.069C121.262 13.069 122.127 13.069 123.019 13.069C123.046 13.3124 123.046 13.3124 123.074 13.5607C123.146 13.5427 123.218 13.5246 123.292 13.5061C123.292 13.47 123.292 13.434 123.292 13.3968C124.555 12.6842 126.116 12.5063 127.444 13.1783Z" fill="#00005C"/>
<path d="M55.1179 8.26196C55.9832 8.26196 56.8485 8.26196 57.74 8.26196C57.7412 10.1539 57.7422 12.0458 57.7428 13.9378C57.7428 14.1609 57.7429 14.384 57.743 14.6072C57.743 14.6516 57.743 14.696 57.743 14.7418C57.7433 15.462 57.7437 16.1822 57.7442 16.9024C57.7447 17.6409 57.745 18.3794 57.7451 19.1178C57.7452 19.5739 57.7454 20.0299 57.7459 20.4859C57.7462 20.7982 57.7463 21.1105 57.7462 21.4228C57.7462 21.6033 57.7462 21.7837 57.7465 21.9642C57.7468 22.1594 57.7467 22.3545 57.7466 22.5497C57.7467 22.6074 57.7469 22.665 57.747 22.7244C57.7469 22.7763 57.7468 22.8281 57.7467 22.8816C57.7467 22.9493 57.7467 22.9493 57.7468 23.0183C57.74 23.1204 57.74 23.1204 57.6854 23.175C57.6049 23.1801 57.5241 23.1814 57.4435 23.1812C57.3921 23.1812 57.3407 23.1812 57.2877 23.1812C57.2318 23.1809 57.176 23.1806 57.1184 23.1803C57.033 23.1802 57.033 23.1802 56.9459 23.1801C56.7634 23.1798 56.5808 23.1791 56.3982 23.1784C56.2748 23.1781 56.1513 23.1779 56.0279 23.1777C55.7246 23.177 55.4212 23.1761 55.1179 23.175C55.1179 23.1389 55.1179 23.1029 55.1179 23.0657C55.9471 23.0657 56.7764 23.0657 57.6307 23.0657C57.6307 18.1985 57.6307 13.3313 57.6307 8.31659C56.8015 8.31659 55.9723 8.31659 55.1179 8.31659C55.1179 8.29856 55.1179 8.28054 55.1179 8.26196Z" fill="#00005C"/>
<path d="M116.081 13.0691C116.946 13.0691 117.811 13.0691 118.703 13.0691C118.703 16.404 118.703 19.739 118.703 23.175C117.856 23.175 117.008 23.175 116.135 23.175C116.081 23.1204 116.081 23.1204 116.075 22.9477C116.076 22.8422 116.076 22.8422 116.077 22.7346C116.078 22.6641 116.078 22.5936 116.079 22.521C116.079 22.4664 116.08 22.4118 116.081 22.3556C116.099 22.3556 116.117 22.3556 116.135 22.3556C116.135 22.5899 116.135 22.8243 116.135 23.0657C116.947 23.0657 117.758 23.0657 118.594 23.0657C118.594 19.8029 118.594 16.5401 118.594 13.1783C117.782 13.1783 116.971 13.1783 116.135 13.1783C116.135 13.4127 116.135 13.647 116.135 13.8885C116.117 13.8885 116.099 13.8885 116.081 13.8885C116.081 13.6181 116.081 13.3477 116.081 13.0691Z" fill="#00005C"/>
<path d="M120.397 13.0691C121.244 13.0691 122.091 13.0691 122.964 13.0691C122.964 13.1051 122.964 13.1412 122.964 13.1783C122.153 13.1783 121.342 13.1783 120.506 13.1783C120.506 16.4412 120.506 19.704 120.506 23.0657C121.335 23.0657 122.165 23.0657 123.019 23.0657C123.019 23.1018 123.019 23.1378 123.019 23.175C122.654 23.1764 122.29 23.1773 121.925 23.178C121.801 23.1783 121.677 23.1786 121.553 23.1791C121.375 23.1798 121.196 23.1801 121.018 23.1803C120.963 23.1806 120.907 23.1809 120.849 23.1812C120.798 23.1812 120.746 23.1812 120.693 23.1812C120.648 23.1813 120.602 23.1814 120.556 23.1816C120.451 23.175 120.451 23.175 120.397 23.1204C120.392 22.9905 120.39 22.8621 120.39 22.7322C120.39 22.6911 120.39 22.65 120.39 22.6077C120.39 22.4689 120.39 22.3302 120.391 22.1915C120.391 22.0924 120.391 21.9934 120.391 21.8944C120.391 21.6246 120.391 21.3549 120.391 21.0852C120.392 20.8036 120.392 20.522 120.392 20.2405C120.392 19.7069 120.392 19.1733 120.393 18.6398C120.394 18.0325 120.394 17.4252 120.394 16.8179C120.395 15.5683 120.396 14.3187 120.397 13.0691Z" fill="#00005C"/>
<path d="M107.286 16.3467C107.323 16.3647 107.359 16.3827 107.396 16.4013C107.397 17.2764 107.398 18.1515 107.399 19.0266C107.399 19.4329 107.399 19.8392 107.4 20.2455C107.4 20.5996 107.401 20.9536 107.401 21.3076C107.401 21.4951 107.401 21.6827 107.402 21.8702C107.402 22.0793 107.402 22.2883 107.402 22.4974C107.402 22.56 107.402 22.6226 107.403 22.6872C107.402 22.7438 107.402 22.8004 107.402 22.8587C107.402 22.9082 107.402 22.9577 107.402 23.0087C107.396 23.1204 107.396 23.1204 107.341 23.175C107.261 23.1801 107.18 23.1814 107.099 23.1812C107.048 23.1812 106.996 23.1812 106.943 23.1812C106.888 23.1809 106.832 23.1806 106.774 23.1803C106.717 23.1802 106.66 23.1802 106.602 23.1801C106.419 23.1798 106.237 23.1791 106.054 23.1784C105.931 23.1781 105.807 23.1779 105.684 23.1777C105.38 23.1771 105.077 23.1761 104.774 23.175C104.774 23.1389 104.774 23.1029 104.774 23.0657C105.603 23.0657 106.432 23.0657 107.286 23.0657C107.286 20.8484 107.286 18.6312 107.286 16.3467Z" fill="#00005C"/>
<path d="M82.3765 13.0691C82.3765 13.2854 82.3765 13.5017 82.3765 13.7246C82.4126 13.7426 82.4486 13.7607 82.4858 13.7792C82.3776 13.8333 82.3776 13.8333 82.2673 13.8885C82.2673 13.6541 82.2673 13.4198 82.2673 13.1783C81.4741 13.1783 80.6809 13.1783 79.8637 13.1783C79.8637 15.7922 79.8637 18.4061 79.8637 21.0992C79.8457 21.0992 79.8277 21.0992 79.8091 21.0992C79.8091 18.4673 79.8091 15.8354 79.8091 13.1237C82.3219 13.0691 82.3219 13.0691 82.3765 13.0691Z" fill="#00005C"/>
<path d="M82.3765 13.0691C82.3765 13.2854 82.3765 13.5017 82.3765 13.7246C82.4126 13.7426 82.4486 13.7607 82.4858 13.7792C82.3776 13.8333 82.3776 13.8333 82.2673 13.8885C82.2673 13.6541 82.2673 13.4198 82.2673 13.1783C81.4561 13.1783 80.6449 13.1783 79.8091 13.1783C79.8091 13.1603 79.8091 13.1423 79.8091 13.1237C80.1659 13.1159 80.5228 13.1082 80.8797 13.1004C81.0012 13.0977 81.1227 13.0951 81.2442 13.0924C81.4184 13.0886 81.5927 13.0848 81.7669 13.081C81.8489 13.0792 81.8489 13.0792 81.9326 13.0774C81.9829 13.0763 82.0332 13.0752 82.085 13.0741C82.1295 13.0731 82.1741 13.0722 82.2199 13.0712C82.2721 13.0701 82.3243 13.0691 82.3765 13.0691Z" fill="#00005C"/>
<path d="M112.421 20.6621C112.646 20.6921 112.868 20.7286 113.091 20.7714C113.394 20.8278 113.698 20.858 114.006 20.8806C114.006 20.9167 114.006 20.9527 114.006 20.9899C113.879 20.9913 113.753 20.9924 113.627 20.9933C113.556 20.9939 113.486 20.9945 113.413 20.9952C113.241 20.9899 113.241 20.9899 113.186 20.9352C113.103 20.9226 113.02 20.9127 112.937 20.9045C112.892 20.8999 112.847 20.8954 112.8 20.8906C112.765 20.8873 112.73 20.884 112.695 20.8806C112.695 20.8446 112.695 20.8085 112.695 20.7714C112.604 20.7714 112.514 20.7714 112.421 20.7714C112.421 20.7353 112.421 20.6993 112.421 20.6621Z" fill="#00005C"/>
<path d="M110.236 13.8337C110.272 13.8518 110.308 13.8698 110.346 13.8884C109.766 14.5403 109.766 14.5403 109.526 14.7624C109.49 14.7624 109.454 14.7624 109.417 14.7624C109.431 14.66 109.431 14.66 109.472 14.5439C109.544 14.5065 109.617 14.4702 109.69 14.4346C109.706 14.4017 109.722 14.3687 109.738 14.3348C109.812 14.1914 109.901 14.1148 110.025 14.0113C110.064 13.9778 110.104 13.9442 110.145 13.9097C110.19 13.8721 110.19 13.8721 110.236 13.8337Z" fill="#00005C"/>
<path d="M70.6868 13.8884C70.7048 13.9425 70.7228 13.9966 70.7414 14.0523C70.6541 14.1425 70.5664 14.2324 70.4785 14.322C70.4297 14.3721 70.3809 14.4222 70.3306 14.4737C70.1951 14.5986 70.1951 14.5986 70.0312 14.6532C70.1247 14.3104 70.4001 14.0795 70.6868 13.8884Z" fill="#00005C"/>
<path d="M135.965 13.1238C136.506 13.1238 137.047 13.1238 137.604 13.1238C137.604 13.2877 137.604 13.2877 137.522 13.3798C137.495 13.4035 137.468 13.4272 137.44 13.4515C137.422 13.3975 137.404 13.3434 137.385 13.2877C137.421 13.2877 137.457 13.2877 137.495 13.2877C137.495 13.2516 137.495 13.2156 137.495 13.1784C136.99 13.1784 136.485 13.1784 135.965 13.1784C135.965 13.1604 135.965 13.1424 135.965 13.1238Z" fill="#00005C"/>
<path d="M100.295 13.6699C100.331 13.6879 100.367 13.706 100.404 13.7245C100.326 13.8148 100.247 13.9046 100.168 13.9943C100.125 14.0443 100.081 14.0944 100.036 14.146C99.9122 14.2708 99.9122 14.2708 99.7483 14.3254C99.7483 14.2894 99.7483 14.2533 99.7483 14.2162C99.7843 14.2162 99.8204 14.2162 99.8575 14.2162C99.8688 14.1768 99.8801 14.1373 99.8917 14.0967C99.9915 13.8925 100.115 13.8069 100.295 13.6699Z" fill="#00005C"/>
<path d="M82.3219 13.0691C82.34 13.0691 82.358 13.0691 82.3766 13.0691C82.3766 13.2854 82.3766 13.5017 82.3766 13.7246C82.4126 13.7426 82.4487 13.7607 82.4858 13.7792C82.3776 13.8333 82.3776 13.8333 82.2673 13.8885C82.2658 13.7622 82.2648 13.6358 82.2639 13.5095C82.2632 13.4392 82.2626 13.3688 82.262 13.2963C82.2673 13.1237 82.2673 13.1237 82.3219 13.0691Z" fill="#00005C"/>
<path d="M31.1917 26.8896C31.5669 26.8619 31.8616 26.8839 32.1749 27.1081C32.193 27.1441 32.211 27.1802 32.2296 27.2173C32.1958 27.2068 32.1621 27.1962 32.1273 27.1853C31.8175 27.0901 31.5089 27.0107 31.1917 26.9442C31.1917 26.9262 31.1917 26.9082 31.1917 26.8896Z" fill="#00005C"/>
<path d="M28.4604 21.7546C28.4964 21.7907 28.5325 21.8267 28.5696 21.8639C28.4536 21.9005 28.3375 21.9369 28.2214 21.9731C28.1568 21.9934 28.0921 22.0137 28.0255 22.0346C27.8595 22.0824 27.8595 22.0824 27.7502 22.0824C27.7502 22.0463 27.7502 22.0103 27.7502 21.9731C27.9846 21.901 28.2189 21.8289 28.4604 21.7546Z" fill="#00005C"/>
<path d="M143.449 17.1113C143.695 17.1697 143.927 17.2282 144.159 17.3298C144.159 17.3479 144.159 17.3659 144.159 17.3845C143.888 17.362 143.643 17.341 143.395 17.2206C143.413 17.1845 143.431 17.1485 143.449 17.1113Z" fill="#00005C"/>
<path d="M50.1473 16.729C50.1834 16.729 50.2194 16.729 50.2566 16.729C50.202 17.1348 50.202 17.1348 50.1473 17.3299C50.1113 17.3299 50.0752 17.3299 50.0381 17.3299C50.0859 16.9134 50.0859 16.9134 50.1473 16.729Z" fill="#00005C"/>
<path d="M24.5819 17.7668C24.618 17.7849 24.654 17.8029 24.6912 17.8215C24.6026 17.8764 24.5138 17.931 24.4249 17.9854C24.3507 18.031 24.3507 18.031 24.2751 18.0775C24.1449 18.1492 24.1449 18.1492 24.0356 18.1492C24.0356 18.1132 24.0356 18.0771 24.0356 18.04C24.1258 18.022 24.2159 18.0039 24.3088 17.9854C24.3088 17.9493 24.3088 17.9132 24.3088 17.8761C24.4385 17.8181 24.4385 17.8181 24.5819 17.7668Z" fill="#00005C"/>
<path d="M76.9141 13.8337C77.3228 14.1697 77.3228 14.1697 77.4603 14.38C77.272 14.2963 77.1206 14.1918 76.9687 14.0522C76.9335 13.9357 76.9335 13.9357 76.9141 13.8337Z" fill="#00005C"/>
<path d="M22.3425 6.40454C22.6089 6.47854 22.6968 6.60757 22.8342 6.84155C22.6007 6.75508 22.4919 6.59542 22.3425 6.40454Z" fill="#00005C"/>
<path d="M145.525 21.3176C145.561 21.3176 145.597 21.3176 145.634 21.3176C145.6 21.4776 145.547 21.6105 145.47 21.7546C145.434 21.7546 145.398 21.7546 145.361 21.7546C145.361 21.7006 145.361 21.6465 145.361 21.5908C145.397 21.5908 145.433 21.5908 145.47 21.5908C145.488 21.5006 145.506 21.4105 145.525 21.3176Z" fill="#00005C"/>
</svg>
