<svg width="16" height="16" viewBox="0 0 16 16" fill="none" xmlns="http://www.w3.org/2000/svg">
<g clip-path="url(#clip0_874_4697)">
<path d="M7.99996 10C9.10453 10 9.99996 9.10459 9.99996 8.00002C9.99996 6.89545 9.10453 6.00002 7.99996 6.00002C6.89539 6.00002 5.99996 6.89545 5.99996 8.00002C5.99996 9.10459 6.89539 10 7.99996 10Z" stroke="#414651" stroke-width="1.5" stroke-linecap="round" stroke-linejoin="round"/>
<path d="M12.9333 10C12.8445 10.2011 12.8181 10.4241 12.8573 10.6404C12.8965 10.8567 12.9996 11.0562 13.1533 11.2134L13.1933 11.2534C13.3173 11.3772 13.4156 11.5242 13.4827 11.6861C13.5498 11.848 13.5843 12.0215 13.5843 12.1967C13.5843 12.3719 13.5498 12.5454 13.4827 12.7073C13.4156 12.8691 13.3173 13.0162 13.1933 13.14C13.0695 13.264 12.9224 13.3623 12.7605 13.4294C12.5987 13.4965 12.4252 13.5311 12.25 13.5311C12.0747 13.5311 11.9012 13.4965 11.7394 13.4294C11.5775 13.3623 11.4305 13.264 11.3066 13.14L11.2666 13.1C11.1095 12.9463 10.9099 12.8432 10.6937 12.804C10.4774 12.7648 10.2544 12.7913 10.0533 12.88C9.85611 12.9645 9.68795 13.1049 9.5695 13.2837C9.45105 13.4626 9.38748 13.6722 9.38663 13.8867V14C9.38663 14.3536 9.24615 14.6928 8.9961 14.9428C8.74605 15.1929 8.40691 15.3334 8.05329 15.3334C7.69967 15.3334 7.36053 15.1929 7.11048 14.9428C6.86044 14.6928 6.71996 14.3536 6.71996 14V13.94C6.7148 13.7194 6.64337 13.5054 6.51497 13.3258C6.38656 13.1463 6.20712 13.0095 5.99996 12.9334C5.79888 12.8446 5.57583 12.8181 5.35957 12.8574C5.1433 12.8966 4.94375 12.9997 4.78663 13.1534L4.74663 13.1934C4.6228 13.3173 4.47574 13.4157 4.31388 13.4828C4.15202 13.5499 3.97851 13.5844 3.80329 13.5844C3.62807 13.5844 3.45457 13.5499 3.29271 13.4828C3.13084 13.4157 2.98379 13.3173 2.85996 13.1934C2.73599 13.0695 2.63765 12.9225 2.57055 12.7606C2.50345 12.5987 2.46891 12.4252 2.46891 12.25C2.46891 12.0748 2.50345 11.9013 2.57055 11.7394C2.63765 11.5776 2.73599 11.4305 2.85996 11.3067L2.89996 11.2667C3.05365 11.1096 3.15675 10.91 3.19596 10.6937C3.23517 10.4775 3.2087 10.2544 3.11996 10.0534C3.03545 9.85617 2.89513 9.68801 2.71627 9.56956C2.53741 9.45111 2.32782 9.38754 2.11329 9.38669H1.99996C1.64634 9.38669 1.3072 9.24621 1.05715 8.99616C0.807102 8.74611 0.666626 8.40698 0.666626 8.05335C0.666626 7.69973 0.807102 7.36059 1.05715 7.11055C1.3072 6.8605 1.64634 6.72002 1.99996 6.72002H2.05996C2.28062 6.71486 2.49463 6.64343 2.67416 6.51503C2.85369 6.38662 2.99044 6.20718 3.06663 6.00002C3.15537 5.79894 3.18184 5.57589 3.14263 5.35963C3.10342 5.14336 3.00032 4.94381 2.84663 4.78669L2.80663 4.74669C2.68266 4.62286 2.58431 4.4758 2.51721 4.31394C2.45011 4.15208 2.41558 3.97857 2.41558 3.80335C2.41558 3.62813 2.45011 3.45463 2.51721 3.29277C2.58431 3.1309 2.68266 2.98385 2.80663 2.86002C2.93046 2.73605 3.07751 2.63771 3.23937 2.57061C3.40124 2.50351 3.57474 2.46897 3.74996 2.46897C3.92518 2.46897 4.09868 2.50351 4.26055 2.57061C4.42241 2.63771 4.56946 2.73605 4.69329 2.86002L4.73329 2.90002C4.89041 3.05371 5.08997 3.15681 5.30623 3.19602C5.5225 3.23524 5.74555 3.20876 5.94663 3.12002H5.99996C6.19714 3.03551 6.3653 2.89519 6.48375 2.71633C6.60221 2.53747 6.66577 2.32788 6.66663 2.11335V2.00002C6.66663 1.6464 6.8071 1.30726 7.05715 1.05721C7.3072 0.807163 7.64634 0.666687 7.99996 0.666687C8.35358 0.666687 8.69272 0.807163 8.94277 1.05721C9.19282 1.30726 9.33329 1.6464 9.33329 2.00002V2.06002C9.33415 2.27454 9.39771 2.48414 9.51616 2.663C9.63461 2.84186 9.80278 2.98218 9.99996 3.06669C10.201 3.15543 10.4241 3.1819 10.6404 3.14269C10.8566 3.10348 11.0562 3.00038 11.2133 2.84669L11.2533 2.80669C11.3771 2.68272 11.5242 2.58437 11.686 2.51727C11.8479 2.45018 12.0214 2.41564 12.1966 2.41564C12.3718 2.41564 12.5453 2.45018 12.7072 2.51727C12.8691 2.58437 13.0161 2.68272 13.14 2.80669C13.2639 2.93052 13.3623 3.07757 13.4294 3.23943C13.4965 3.4013 13.531 3.5748 13.531 3.75002C13.531 3.92524 13.4965 4.09874 13.4294 4.26061C13.3623 4.42247 13.2639 4.56952 13.14 4.69335L13.1 4.73335C12.9463 4.89047 12.8432 5.09003 12.804 5.30629C12.7647 5.52256 12.7912 5.74561 12.88 5.94669V6.00002C12.9645 6.1972 13.1048 6.36537 13.2836 6.48382C13.4625 6.60227 13.6721 6.66583 13.8866 6.66669H14C14.3536 6.66669 14.6927 6.80716 14.9428 7.05721C15.1928 7.30726 15.3333 7.6464 15.3333 8.00002C15.3333 8.35364 15.1928 8.69278 14.9428 8.94283C14.6927 9.19288 14.3536 9.33335 14 9.33335H13.94C13.7254 9.33421 13.5158 9.39778 13.337 9.51623C13.1581 9.63468 13.0178 9.80284 12.9333 10Z" stroke="#414651" stroke-width="1.5" stroke-linecap="round" stroke-linejoin="round"/>
</g>
<defs>
<clipPath id="clip0_874_4697">
<rect width="16" height="16" fill="white"/>
</clipPath>
</defs>
</svg>
