<svg width="24" height="24" viewBox="0 0 24 24" fill="none" xmlns="http://www.w3.org/2000/svg">
<path d="M11.9988 8.00021V12.0002M11.9988 16.0002H12.0088M10.2888 2.8602L1.8188 17.0002C1.64417 17.3026 1.55177 17.6455 1.55079 17.9947C1.54981 18.3439 1.64029 18.6873 1.81323 18.9907C1.98616 19.2941 2.23553 19.547 2.53651 19.7241C2.83749 19.9012 3.1796 19.9964 3.5288 20.0002H20.4688C20.818 19.9964 21.1601 19.9012 21.4611 19.7241C21.7621 19.547 22.0114 19.2941 22.1844 18.9907C22.3573 18.6873 22.4478 18.3439 22.4468 17.9947C22.4458 17.6455 22.3534 17.3026 22.1788 17.0002L13.7088 2.8602C13.5305 2.56631 13.2795 2.32332 12.98 2.15469C12.6805 1.98605 12.3425 1.89746 11.9988 1.89746C11.6551 1.89746 11.3171 1.98605 11.0176 2.15469C10.7181 2.32332 10.4671 2.56631 10.2888 2.8602Z" stroke="#DC6803" stroke-width="2" stroke-linecap="round" stroke-linejoin="round"/>
</svg>
