<svg width="34" height="34" viewBox="0 0 34 34" fill="none" xmlns="http://www.w3.org/2000/svg">
<path d="M0 16.7502C0 7.50172 7.53761 0 16.7502 0C25.9629 0 33.5005 7.50172 33.5005 16.7502C33.5005 25.9988 25.9629 33.5005 16.7502 33.5005C7.53761 33.5005 0 25.9988 0 16.7502Z" fill="#00005C"/>
<path d="M22.6129 15.9734C22.4932 16.0332 22.493 16.0809 22.3733 16.1048C22.2537 16.1407 22.2535 16.1527 22.1338 16.1527C22.0142 16.1527 22.0139 16.1407 21.8943 16.1048C21.7746 16.0809 21.7744 16.0332 21.6548 15.9734L17.348 11.6181V23.3314C17.348 23.4869 17.2289 23.6426 17.2289 23.7503C17.1092 23.8699 16.8695 23.9296 16.7498 23.9296C16.6302 23.9296 16.3904 23.8699 16.2708 23.7503C16.2708 23.6426 16.1516 23.4869 16.1516 23.3314V11.6181L11.8448 15.9734C11.7252 16.093 11.4854 16.1527 11.3658 16.1527C11.2462 16.1527 11.0064 16.093 10.8868 15.9734C10.8868 15.8657 10.7676 15.71 10.7676 15.5545C10.7676 15.399 10.8868 15.2433 10.8868 15.1356L16.2708 9.75162C16.3904 9.69179 16.3906 9.6441 16.5103 9.62017C16.6299 9.58428 16.6302 9.57227 16.7498 9.57227C16.8695 9.57227 16.8697 9.58428 16.9893 9.62017C17.109 9.6441 17.1092 9.69179 17.2289 9.75162L22.6129 15.1356C22.6129 15.1835 22.6124 15.2555 22.732 15.3272C22.732 15.399 22.732 15.4707 22.732 15.5545C22.732 15.6382 22.732 15.71 22.732 15.7817C22.6124 15.8535 22.6129 15.9255 22.6129 15.9734Z" fill="white"/>
</svg>
