<svg
  width="4"
  height="25"
  viewBox="0 0 4 25"
  fill="none"
  xmlns="http://www.w3.org/2000/svg"
>
  <path
    d="M2 14C2.82843 14 3.5 13.3284 3.5 12.5C3.5 11.6716 2.82843 11 2 11C1.17157 11 0.5 11.6716 0.5 12.5C0.5 13.3284 1.17157 14 2 14Z"
    fill="#00005c"
  />
  <path
    d="M2 3.5C2.82843 3.5 3.5 2.82843 3.5 2C3.5 1.17157 2.82843 0.5 2 0.5C1.17157 0.5 0.5 1.17157 0.5 2C0.5 2.82843 1.17157 3.5 2 3.5Z"
    fill="#00005c"
  />
  <path
    d="M2 24.5C2.82843 24.5 3.5 23.8284 3.5 23C3.5 22.1716 2.82843 21.5 2 21.5C1.17157 21.5 0.5 22.1716 0.5 23C0.5 23.8284 1.17157 24.5 2 24.5Z"
    fill="#00005c"
  />
  <path
    d="M2 14C2.82843 14 3.5 13.3284 3.5 12.5C3.5 11.6716 2.82843 11 2 11C1.17157 11 0.5 11.6716 0.5 12.5C0.5 13.3284 1.17157 14 2 14Z"
    stroke="#D9D9D9"
    stroke-linecap="round"
    stroke-linejoin="round"
  />
  <path
    d="M2 3.5C2.82843 3.5 3.5 2.82843 3.5 2C3.5 1.17157 2.82843 0.5 2 0.5C1.17157 0.5 0.5 1.17157 0.5 2C0.5 2.82843 1.17157 3.5 2 3.5Z"
    stroke="#D9D9D9"
    stroke-linecap="round"
    stroke-linejoin="round"
  />
  <path
    d="M2 24.5C2.82843 24.5 3.5 23.8284 3.5 23C3.5 22.1716 2.82843 21.5 2 21.5C1.17157 21.5 0.5 22.1716 0.5 23C0.5 23.8284 1.17157 24.5 2 24.5Z"
    stroke="#D9D9D9"
    stroke-linecap="round"
    stroke-linejoin="round"
  />
</svg>
