<svg width="36" height="36" viewBox="0 0 36 36" fill="none" xmlns="http://www.w3.org/2000/svg">
<rect x="0.5" y="0.5" width="35" height="35" rx="17.5" stroke="#DCDCDC"/>
<path fill-rule="evenodd" clip-rule="evenodd" d="M22.1045 11.8339C20.962 11.5785 19.6235 11.8839 18.4455 13.0816C18.328 13.2011 18.1675 13.2684 17.9999 13.2684C17.8324 13.2684 17.6718 13.2011 17.5543 13.0816C16.3763 11.8839 15.0378 11.5785 13.8953 11.8339C12.7372 12.0928 11.7209 12.9403 11.2293 14.1691C10.2888 16.52 11.2196 20.6577 18 24.5725C24.7803 20.6577 25.7111 16.52 24.7706 14.1691C24.2789 12.9403 23.2626 12.0928 22.1045 11.8339ZM25.9311 13.7048C27.2385 16.9726 25.5726 21.7539 18.3061 25.8367C18.116 25.9435 17.8839 25.9435 17.6938 25.8367C10.4273 21.7539 8.7614 16.9726 10.0687 13.7048C10.708 12.1069 12.0478 10.966 13.6227 10.614C15.0547 10.2939 16.6334 10.6359 17.9999 11.7913C19.3665 10.6359 20.9451 10.2939 22.3772 10.614C23.9521 10.966 25.2918 12.1068 25.9311 13.7048Z" fill="#52525B"/>
</svg>
