<svg width="20" height="19" viewBox="0 0 20 19" fill="none" xmlns="http://www.w3.org/2000/svg">
<path d="M3.33398 3.1665H13.334" stroke="#0C0310" stroke-width="1.5" stroke-linecap="round"/>
<path d="M3.33398 9H8.33398" stroke="#0C0310" stroke-width="1.5" stroke-linecap="round"/>
<path d="M11.666 9H16.666" stroke="#0C0310" stroke-width="1.5" stroke-linecap="round"/>
<path d="M6.66602 14.8335H16.666" stroke="#0C0310" stroke-width="1.5" stroke-linecap="round"/>
<path d="M15.0007 4.83333C15.9211 4.83333 16.6673 4.08714 16.6673 3.16667C16.6673 2.24619 15.9211 1.5 15.0007 1.5C14.0802 1.5 13.334 2.24619 13.334 3.16667C13.334 4.08714 14.0802 4.83333 15.0007 4.83333Z" stroke="#0C0310" stroke-width="1.5" stroke-linecap="round"/>
<path d="M10.0007 10.6668C10.9211 10.6668 11.6673 9.92064 11.6673 9.00016C11.6673 8.07969 10.9211 7.3335 10.0007 7.3335C9.08018 7.3335 8.33398 8.07969 8.33398 9.00016C8.33398 9.92064 9.08018 10.6668 10.0007 10.6668Z" stroke="#0C0310" stroke-width="1.5" stroke-linecap="round"/>
<path d="M5.00065 16.4998C5.92113 16.4998 6.66732 15.7536 6.66732 14.8332C6.66732 13.9127 5.92113 13.1665 5.00065 13.1665C4.08018 13.1665 3.33398 13.9127 3.33398 14.8332C3.33398 15.7536 4.08018 16.4998 5.00065 16.4998Z" stroke="#0C0310" stroke-width="1.5" stroke-linecap="round"/>
</svg>
