<svg width="16" height="16" viewBox="0 0 16 16" fill="none" xmlns="http://www.w3.org/2000/svg">
<path d="M2.66671 13.3334C2.30004 13.3334 1.98615 13.2028 1.72504 12.9417C1.46393 12.6806 1.33337 12.3667 1.33337 12V4.00002C1.33337 3.63335 1.46393 3.31946 1.72504 3.05835C1.98615 2.79724 2.30004 2.66669 2.66671 2.66669H6.66671L8.00004 4.00002H13.3334C13.7 4.00002 14.0139 4.13058 14.275 4.39169C14.5362 4.6528 14.6667 4.96669 14.6667 5.33335V12C14.6667 12.3667 14.5362 12.6806 14.275 12.9417C14.0139 13.2028 13.7 13.3334 13.3334 13.3334H2.66671ZM2.66671 12H13.3334V5.33335H7.45004L6.11671 4.00002H2.66671V12Z" fill="#1D1B20"/>
</svg>
