<svg width="28" height="28" viewBox="0 0 28 28" fill="none" xmlns="http://www.w3.org/2000/svg">
<path fill-rule="evenodd" clip-rule="evenodd" d="M19.7455 5.36746C18.1461 5.00996 16.2721 5.4374 14.623 7.1143C14.4585 7.28156 14.2337 7.37576 13.9991 7.37576C13.7645 7.37576 13.5398 7.28156 13.3753 7.1143C11.7261 5.4374 9.85215 5.00996 8.2527 5.36746C6.63131 5.72987 5.20849 6.91643 4.52024 8.63679C3.20355 11.928 4.5067 17.7207 13.9992 23.2016C23.4916 17.7207 24.7947 11.928 23.478 8.63678C22.7897 6.91642 21.3669 5.72987 19.7455 5.36746ZM25.1028 7.98675C26.9331 12.5617 24.6008 19.2554 14.4278 24.9713C14.1616 25.1209 13.8367 25.1209 13.5706 24.9713C3.39751 19.2555 1.06518 12.5617 2.89544 7.98676C3.79045 5.74959 5.66612 4.15243 7.87097 3.65961C9.8758 3.21149 12.0859 3.69031 13.9991 5.30782C15.9123 3.69031 18.1224 3.21149 20.1273 3.6596C22.3321 4.15242 24.2078 5.74958 25.1028 7.98675Z" fill="#52525B"/>
</svg>
