<svg width="16" height="16" viewBox="0 0 16 16" fill="none" xmlns="http://www.w3.org/2000/svg">
<path d="M4.63523 4.14161C4.88507 3.50813 5.7816 3.50814 6.03144 4.14162L6.80567 6.10472C6.88193 6.29812 7.03507 6.45122 7.22847 6.52749L9.19153 7.30173C9.82507 7.55157 9.82507 8.4481 9.19153 8.69794L7.22847 9.47217C7.03507 9.54844 6.88193 9.70157 6.80567 9.89497L6.03144 11.858C5.7816 12.4916 4.88507 12.4916 4.63523 11.858L3.86099 9.89497C3.78471 9.70157 3.63162 9.54844 3.43821 9.47217L1.47511 8.69794C0.841627 8.4481 0.841633 7.55157 1.47511 7.30173L3.43821 6.52749C3.63162 6.45122 3.78471 6.29812 3.86099 6.10472L4.63523 4.14161Z" fill="#00005C"/>
<path opacity="0.5" d="M10.7442 10.174C10.8358 9.94199 11.1642 9.94199 11.2558 10.174L11.656 11.189C11.684 11.2599 11.7401 11.316 11.811 11.344L12.826 11.7442C13.058 11.8358 13.058 12.1642 12.826 12.2558L11.811 12.656C11.7401 12.684 11.684 12.7401 11.656 12.811L11.2558 13.826C11.1642 14.058 10.8358 14.058 10.7442 13.826L10.344 12.811C10.316 12.7401 10.2599 12.684 10.189 12.656L9.17403 12.2558C8.94199 12.1642 8.94199 11.8358 9.17403 11.7442L10.189 11.344C10.2599 11.316 10.316 11.2599 10.344 11.189L10.7442 10.174Z" fill="#00005C"/>
<path opacity="0.5" d="M11.9503 2.26105C12.0876 1.91298 12.5803 1.91298 12.7176 2.26105L13.318 3.78352C13.36 3.88985 13.4441 3.97398 13.5504 4.01592L15.0729 4.61632C15.421 4.75365 15.421 5.24632 15.0729 5.38365L13.5504 5.98405C13.4441 6.02598 13.36 6.11012 13.318 6.21645L12.7176 7.73892C12.5803 8.08698 12.0876 8.08698 11.9503 7.73892L11.3499 6.21645C11.308 6.11012 11.2238 6.02598 11.1175 5.98405L9.59503 5.38365C9.24697 5.24632 9.24697 4.75365 9.59503 4.61632L11.1175 4.01592C11.2238 3.97398 11.308 3.88985 11.3499 3.78352L11.9503 2.26105Z" fill="#00005C"/>
</svg>
