<svg width="36" height="36" viewBox="0 0 36 36" fill="none" xmlns="http://www.w3.org/2000/svg">
<rect x="0.5" y="0.5" width="35" height="35" rx="17.5" stroke="#DCDCDC"/>
<path d="M15.5 10.5H12.1667C11.7246 10.5 11.3007 10.6756 10.9882 10.9882C10.6756 11.3007 10.5 11.7246 10.5 12.1667V15.5M15.5 10.5H23.8333C24.2754 10.5 24.6993 10.6756 25.0118 10.9882C25.3244 11.3007 25.5 11.7246 25.5 12.1667V15.5M15.5 10.5V25.5M10.5 15.5V23.8333C10.5 24.2754 10.6756 24.6993 10.9882 25.0118C11.3007 25.3244 11.7246 25.5 12.1667 25.5H15.5M10.5 15.5H25.5M25.5 15.5V23.8333C25.5 24.2754 25.3244 24.6993 25.0118 25.0118C24.6993 25.3244 24.2754 25.5 23.8333 25.5H15.5" stroke="#464646" stroke-width="1.67" stroke-linecap="round" stroke-linejoin="round"/>
</svg>
